<svg xmlns="http://www.w3.org/2000/svg" version="1.1" xmlns:xlink="http://www.w3.org/1999/xlink" xmlns:svgjs="http://svgjs.com/svgjs" width="511.999" height="511.999"><svg version="1.1" id="SvgjsSvg1000" xmlns="http://www.w3.org/2000/svg" xmlns:xlink="http://www.w3.org/1999/xlink" x="0px" y="0px" viewBox="0 0 511.999 511.999" style="enable-background:new 0 0 511.999 511.999;" xml:space="preserve">
<path style="fill:#FF8546;" d="M498.733,200.134c12.852,0,18.169-16.47,7.743-23.984L287.66,18.443
	c-18.908-13.626-44.414-13.626-63.321,0L5.524,176.15c-10.426,7.515-5.111,23.984,7.743,23.984h21.434v268.189h-6.466
	c-9.789,0-17.726,7.936-17.726,17.726c0,9.789,7.936,17.726,17.726,17.726h455.53c9.789,0,17.726-7.936,17.726-17.726
	c0-9.789-7.936-17.726-17.726-17.726h-6.466V200.134H498.733z"></path>
<path style="fill:#E03905;" d="M498.733,200.134c12.852,0,18.169-16.47,7.743-23.984L287.66,18.443
	c-9.454-6.814-20.556-10.22-31.661-10.22v149.738v86.289v259.525h227.765c9.789,0,17.726-7.936,17.726-17.726
	c0-9.789-7.936-17.726-17.726-17.726h-6.466V200.134H498.733z"></path>
<path style="fill:#CCF7F5;" d="M165.252,206.712c-3.74-4.924-9.423-7.749-15.59-7.749c-7.324,0-13.979,4.04-17.367,10.545
	c-0.733,1.406-0.157,3.204,1.282,4.006l37.285,20.75c12.731,7.086,17.452,22.713,10.748,35.577
	c-7.476,14.345-22.16,23.255-38.324,23.255c-13.618,0-26.161-6.227-34.411-17.082c-3.948-5.196-2.938-12.61,2.258-16.559
	c5.196-3.948,12.61-2.938,16.559,2.258c3.741,4.924,9.425,7.749,15.593,7.749c7.322,0,13.976-4.039,17.365-10.542
	c0.733-1.406,0.157-3.202-1.282-4.004l-37.285-20.751c-12.728-7.086-17.45-22.713-10.749-35.576
	c7.473-14.347,22.16-23.26,38.327-23.26c13.621,0,26.163,6.228,34.412,17.087c3.947,5.197,2.934,12.611-2.263,16.558
	C176.613,212.922,169.199,211.908,165.252,206.712z M253.998,157.911c23.816,0,43.193,19.377,43.193,43.195
	c0,23.818-19.376,43.196-43.193,43.196c-7.017,0-13.673-1.673-19.562-4.66v24.218c0,6.525-5.291,11.817-11.817,11.817
	s-11.817-5.292-11.817-11.817v-62.754C210.802,177.288,230.18,157.911,253.998,157.911z M253.998,181.545
	c-10.787,0-19.562,8.775-19.562,19.561v1.376c0.05,0.273,0.091,0.551,0.123,0.831c1.104,9.893,9.461,17.355,19.439,17.355
	c10.784,0,19.559-8.775,19.559-19.561C273.557,190.321,264.782,181.545,253.998,181.545z"></path>
<g>
	<path style="fill:#74D6D0;" d="M256,157.962v23.685c9.848,1.007,17.557,9.349,17.557,19.459c0,10.111-7.708,18.453-17.557,19.459
		v23.685c22.891-1.051,41.191-19.998,41.191-43.145S278.891,159.012,256,157.962z"></path>
	<path style="fill:#74D6D0;" d="M362.337,175.329c-23.818,0-43.194,19.377-43.194,43.195v59.694c0,6.525,5.291,11.817,11.817,11.817
		c6.527,0,11.817-5.292,11.817-11.817V256.1h39.121v22.118c0,6.525,5.291,11.817,11.817,11.817c6.527,0,11.817-5.292,11.817-11.817
		v-59.694C405.534,194.707,386.156,175.329,362.337,175.329z M381.899,232.466h-39.121v-13.941c0-10.786,8.774-19.561,19.56-19.561
		c10.787,0,19.562,8.775,19.562,19.561v13.941H381.899z"></path>
</g>
<path style="fill:#E0E0E0;" d="M206.808,389.732c0-27.168,22.024-49.193,49.192-49.193s49.192,22.025,49.192,49.193v53.222h-98.383
	L206.808,389.732L206.808,389.732z"></path>
<path style="fill:#F4F4F4;" d="M206.808,389.732c0-27.168,22.024-49.193,49.192-49.193v102.415h-49.192V389.732z"></path>
<path style="fill:#575757;" d="M328.146,461.28H183.853c-6.417,0-11.618-5.202-11.618-11.617l0,0
	c0-6.417,5.202-11.617,11.618-11.617h144.293c6.417,0,11.618,5.202,11.618,11.617l0,0
	C339.764,456.078,334.563,461.28,328.146,461.28z"></path>
<path style="fill:#707070;" d="M256.009,461.28h-72.156c-6.417,0-11.617-5.202-11.617-11.617l0,0
	c0-6.417,5.202-11.617,11.617-11.617h72.156V461.28z"></path>
<g>
</g>
<g>
</g>
<g>
</g>
<g>
</g>
<g>
</g>
<g>
</g>
<g>
</g>
<g>
</g>
<g>
</g>
<g>
</g>
<g>
</g>
<g>
</g>
<g>
</g>
<g>
</g>
<g>
</g>
</svg><style>@media (prefers-color-scheme: light) { :root { filter: none; } }
</style></svg>